# xmcd
#
# Track frame offsets: 
#        150
#        15820
#        32535
#        48850
#
# Disc length: 917 seconds
#
# Revision: 4
# Processed by: cddbd v1.5.2PL0 Copyright (c) Steve Scherf et al.
# Submitted via: ExactAudioCopyFreeDBPlugin 1.0
#
DISCID=1b039304
DTITLE=Alicia Keys - Girlfriend [Single]
DYEAR=2002
DGENRE=R&B
TTITLE0=Girlfriend (Krucialkeys Sista Girl Mix)
TTITLE1=Girlfriend (Brat Pac Remix)
TTITLE2=Girlfriend (Original Album Version)
TTITLE3=Fallin' (Ali Version)
EXTD=
EXTT0=
EXTT1=
EXTT2=
EXTT3=
PLAYORDER=
